<?xml version="1.0" encoding="UTF-8"?>
<svg version="1.1" viewBox="0 0 2048 1378" width="1160" height="781" xmlns="http://www.w3.org/2000/svg">
<path transform="translate(1619,2)" d="m0 0h42l26 3 25 6 21 8 17 8 20 12 14 10 16 13 13 12 7 7 9 11 10 13 12 20 10 21 7 21 5 26 1 11v24l-4 26v13l6 7 17 12 14 10 10 8 14 12 26 26 9 11 13 16 14 20 13 22 12 23 8 19 9 27 6 26 4 25 2 27-1 18-9 57-6 25-9 30-11 28-11 22-14 24-14 22-14 19-11 14-14 17-9 10-7 8-11 12-37 37-8 7-10 9-11 9-13 11-13 10-21 16-18 13-36 24-24 15-14 8-26 13-23 14-14 9-21 12-32 16-36 16-51 22-41 16-40 14-38 13-53 16-52 14-45 11-52 11-48 9-69 11-57 7-51 5-29 2-55 2-36 2h-59l-29-1-29-2-43-2-44-4-27-4-19-4h-13l-8 4-6 7-12 17-11 14-9 10-7 8-16 17-9 9-8 7-13 12-14 11-15 10-13 6-14 4-14 1-10-3-10-6-7-7-8-13-4-14v-12l3-12 7-12 11-12 7-8 9-10 11-15 9-17 5-16 1-8-2-4-19-8-40-10-27-9-34-14-29-13-33-16-24-13-21-13-17-12-16-13-15-13-17-13-14-12-15-14-13-12-7-8-13-16-12-17-13-21-14-27-10-25-7-22-5-20-4-25-2-20v-38l3-26 5-22 9-30 7-25 8-20 13-27 13-23 15-24 13-18 13-17 9-11 12-14 9-10 7-8 38-38 8-7 12-11 11-9 13-11 19-14 21-16 14-10 18-13 38-24 15-10 20-12 23-13 23-12 24-12 19-10 27-13 29-13 29-12 32-13 49-18 43-15 37-12 46-13 40-8 29-9 44-10 50-10 54-9 50-7 63-7 68-5 43-2h134l12-5 14-12 15-10 23-11 86-36 34-13 29-9 31-7 32-5zm6 88-30 2-31 4-24 6-19 8-11 6-12 9-14 12-15 14-19 19-13 17-12 16-5 5v2l-4 2-8 6-11 4-5 1h-13l-13-3-12-6-10-8-9-11-8-14-8-23-4-5-4-2-12-1h-69l-121 6-46 2-32 3-69 10-48 8-27 4-31 8-36 10-34 7-43 13-45 13-28 7-39 12-21 9-20 9-47 19-25 11-34 16-29 12-32 16-20 12-21 13-32 19-27 18-16 11-17 12-19 14-14 11-16 13-10 8-13 11-15 14-13 12-23 23-7 8-15 16-9 11-12 15-22 33-12 19-13 24-15 33-9 23-4 16-6 37-3 27v25l4 26 5 23 9 29 9 25 9 19 14 21 12 17 12 16 16 16 8 7 12 11 11 9 15 11 30 20 17 11 26 15 27 14 31 15 37 15 26 11 20 9 18 4 17 3 6-5 2-7 2-27 5-139v-32l-2-12-4-6-4-3h-11l-19 4-10-2-6-4-4-5-3-10v-13l2-15 6-18 8-16 10-19 11-17 12-17 12-16 13-18 11-14 11-13 9-10 10-9 17-12 16-8 9-3h10l9 4 7 6 6 9 4 12 1 8v19l-3 21-8 29-6 24-7 32-5 34-1 10-1 99-2 23-4 27-3 20v21l3 15 6 12 7 6 6 3 5 1h7l12-3 17-9 12-9 11-9 14-12 38-38 7-8 9-10 24-28 26-34 14-22 12-21 13-25 12-29 9-28 5-22 2-15v-43l-3-20-8-26-10-21-10-14-9-10-11-11-16-11-18-10-20-8-15-4-19-3-22-1-24 2-24 4-32 8-29 10-49 19-37 15-34 16-47 23-25 12-30 15-21 12-21 14-14 10-14 11-11 9-12 11-17 17-7 8-9 10-11 10-14 8-11 5-7 2h-14l-10-4-6-4-5-5-5-8-1-3v-21l3-12 6-12 11-13 12-12 14-11 15-10 23-14 17-12 16-13 15-11 15-9 38-19 54-23 20-9 28-13 47-20 37-14 27-10 16-8 16-9 12-8 20-14 18-13 10-8 12-11 7-8 11-14 11-17 11-20 9-21 5-18 6-27 5-9 6-4h19l11 4 8 6 4 5 3 8-1 9-5 10-12 14-13 12-14 12-16 14-9 11-10 14-8 16-4 12-1 5v13l3 6 6 4 16 4 68 10 34 7 23 7 24 10 18 10 13 10 12 11 10 12 8 13 8 16 8 24 4 20 2 17 1 15v18l-3 31-5 28-6 23-10 28-11 26-9 17-11 17-14 19-14 17-9 11-11 13-9 11-12 15-12 16-13 18-21 31-11 15-8 10-9 10-12 12-14 11-16 12-20 14-14 11-10 10-1 4 6 2 58 6 59 4 48 2 29 3h14l51-4 58-3 53-4 50-5 56-8 49-8 56-11 40-9 64-16 46-12 80-27 53-20 27-11 36-15 30-14 39-19 35-17 45-27 22-14 19-12 27-18 19-14 14-11 16-13 9-7 10-8 15-13 7-7 8-7 12-12 8-7 16-17 8-8 9-11 10-11 11-14 12-15 14-20 13-21 13-24 9-20 10-28 7-24 7-38 5-26 2-9v-7l-4-17-3-23-5-19-10-28-8-18-8-16-13-22-10-14-11-14-24-28-14-15-16-15-11-9-9-6-5-2h-5l-3 3-3 9-7 48-2 23 2 22 5 24 7 24 10 25 9 15 9 14 3 7v11l-6 9-8 6-11 5-10 1-8-3-6-7-4-9-1-4v-14l2-21 1-18v-11l-2-17-5-28-5-15-7-13-7-7-5-1-8 7-11 15-14 19-10 13-9 11-11 13-11 12-10 10-14 11-14 9-28 15-14 8-13 11-8 11-6 13-3 13-2 20-2 52v151l2 7 4 3 3 1 28 1 40 4 49 6 40 3 31 2 14 3 10 5 6 7 1 2v7l-7 8-14 7-14 4-12 2-11 1h-88l-73 2-5 3-2 6v84l-3 19-4 10-5 6-5 2h-12l-9-4-7-8-7-15-4-16-3-29-3-45-2-9-5-5-4-1-128-5-210-6-30-1-52-1h-30l-17 1-15 3-8 4-7 8-3 9-2 45-6 76-2 52-2 17-4 11-4 5v2l-4 2-3 1h-9l-11-8-7-11-6-17-6-25-9-56-10-65-2-23-1-21-1-182-3-32-6-31-13-53-3-19v-11l2-11 6-12 9-10 10-6 12-3 14-1 13 2 12 6 10 9 9 14 6 14 3 16v22l-5 28-1 9v29l3 26 4 21 4 10 4 5 8 4h13l12-4 12-7 14-12 14-13 8-7 12-11 8-7 16-16 13-17 11-17 12-21 7-16 4-14v-23l-5-18-10-21-12-18-11-12-9-8-16-9-16-6-20-4-19-2h-50l-17 2-23 5-17 5-24 10-20 10-22 13-13 10-14 12-10 10-8 7-10 9-19 14-19 10-17 5-7 1h-11l-12-3-9-6-7-9-5-13-1-6v-9l4-16 9-17 6-7 14-11 16-9 17-7 53-15 31-11 25-11 29-13 24-9 26-7 23-4 30-3 34-3 24-5 19-7 15-8 11-9 6-7 5-6 2-1h7l4 2 3 8v20l4 10 7 11 9 11 11 11 11 9 13 11 11 9 11 12 10 14 8 16 6 18 2 13v19l-4 20-7 19-8 16-12 21-17 28-14 23-14 22-12 16-11 12-22 22-8 7-10 10-12 16-3 7v9l4 6 6 4 20 4 54 7 57 5 87 6 55 3 47 3 41 2h29l4-4 1-2v-15l-5-59-4-55-3-39-3-56-2-52-9-90-2-35v-18l1-20v-47l-5-44v-16l3-15 6-11 7-6 9-4 4-1h16l11 4 14 10 14 11 12 11 9 12 8 16 7 19 5 6 7 4v2l-15 2-8 5-5 10-3 24-4 42v23l3 14 6 12 8 7 4 2h12l12-5 11-8 12-11 7-7 9-11 10-13 20-30 12-21 13-27 13-30 8-22 6-21 3-17v-24l-4-18-7-16-12-20-9-12-11-12-10-10-14-10-15-8-16-5-18-3-16-1z"/>
<path transform="translate(1409,293)" d="m0 0h17l8 3 6 6 1 3v17l-3 20v29l4 37 6 49 3 37 4 88 3 36 4 31 6 30 11 38 1 6v20l-5 10-9 8-10 5-7 2-17 1-15-2-12-5-9-6-8-9-6-12-3-11-1-8-1-125-2-40-3-26-5-26-10-33-6-24-4-25-2-20v-18l3-19 5-15 8-15 11-14 10-10 11-7 11-5z"/>
<path transform="translate(863,966)" d="m0 0h15l8 4 5 4 6 8 8 16 6 20 2 12v14l-3 12-6 8-9 6-8 2h-12l-10-3-9-5-10-9-7-10-5-13-2-10v-18l3-11 6-11 9-10 9-5z"/>
<path transform="translate(1091,198)" d="m0 0h11l16 4 16 8 11 8 5 4 7 10 5 14v9l-4 10-7 8-13 5-4 1h-16l-18-6-13-7-10-8-7-7-7-14-2-9 1-9 4-8 7-7 9-4z"/>
<path transform="translate(833,1102)" d="m0 0h15l11 4 9 6 5 6 1 3v12l-6 10-8 5-7 2h-8l-11-3-8-4-6-5-4-7-1-4v-8l4-8 7-6z"/>
<path transform="translate(1259,256)" d="m0 0 11 2 8 5 4 6 1 4v16l-3 10-5 7-7 4-9 1-9-3-7-6-3-6-1-10 2-10 6-12 8-7z"/>
<path transform="translate(1691,318)" d="m0 0 9 3 5 5 3 5v5l-4 4-2 1h-6l-9-6-3-5v-7l4-4z"/>
</svg>
