<?xml version="1.0" encoding="UTF-8"?>
<svg version="1.1" viewBox="0 0 2615 251" width="2615" height="251" xmlns="http://www.w3.org/2000/svg">
<path transform="translate(942,10)" d="m0 0h56l16 26 28 44 15 24 11 17v2h2l8-15 12-19 14-22 30-48 7-9h55l1 1v233l-1 1h-60v-106l-2 1-5 10-12 17-16 23-14 20-13 19-4 4-6-4-14-20-12-17-13-18-15-22-8-11-1 103-1 1h-58z" fill="#fff"/>
<path transform="translate(1,10)" d="m0 0h123l12 2 14 5 14 10 7 6 8 14 5 14v24l-6 16-11 13-8 5 5 5 13 10 12 13 7 15 2 8v21l-6 17-12 16-13 10-21 9-11 2h-134l-1-3v-231zm65 51-1 36 1 1h35l10-4 5-4 3-6v-11l-7-9-4-3zm1 91-1 1-1 42h45l11-4 6-8 1-6v-9l-5-10-8-5-5-1z" fill="#fff"/>
<path transform="translate(1506,10)" d="m0 0h51l56 56 11 9 26 26 2-91h65v235h-16l-13-13-11-9-12-12-8-7-16-15-8-7-7-7-8-7-7-7-8-7-7-7-8-7-12-11-8-7-1 122-1 1h-59l-1-1z" fill="#fff"/>
<path transform="translate(489,10)" d="m0 0h117l11 1 17 6 16 12 8 10 7 15 2 7 1 16-4 18-9 14-10 9-3 1 9 8 9 7 10 10 8 16 3 12v16l-5 16-8 14-10 11-20 11-20 5h-130v-234zm63 51v37h34l11-5 6-9v-11l-6-9-4-3zm1 91-1 1v42h42l11-4 6-7 1-5v-12l-5-9-7-5-5-1z" fill="#fff"/>
<path transform="translate(2439,10)" d="m0 0h101l16 2 16 7 15 11 6 5 12 18 6 14 2 9v28l-5 20-10 17-12 13-9 6h-2l7 16 17 35 10 20 6 10v4h-71l-7-10-29-58v-4h-26v71l-1 1h-64v-234zm43 55v52h46l10-4 8-10 2-4v-16l-5-8-8-7-7-3z" fill="#fff"/>
<path transform="translate(1834)" d="m0 0h39l22 4 17 7 15 10 12 13 9 19 4 16v9l-1 1h-69l-10-20-8-7-18-3-13 4-6 6v11l8 7 14 6 58 16 18 8 11 7 15 15 8 16 3 16v15l-3 16-11 22-10 12-18 11-14 6-28 6h-47l-21-4-18-7-14-9-11-10-11-17-5-15-1-5v-17h69l1 2 2 12 6 9 12 6h34l9-4 5-4v-17l-2-5-5-2-9-5-23-8-41-12-24-11-15-12-9-13-5-12-1-18 3-15 6-15 10-13 10-10 17-10 20-6z" fill="#fff"/>
<path transform="translate(2193,10)" d="m0 0h182v55h-112v31h20l66 1 6 1v54l-40 1h-51v25l-1 12h111l1 1v54h-182l-1-2v-232z" fill="#fff"/>
<path transform="translate(297,10)" d="m0 0h66l7 12 16 39 19 45 18 43 19 45 18 43 1 2v6h-69l-7-14-10-32v-3l-14 1-76 1-1 6-14 40-1 1h-71l3-9 13-32 19-45 18-43 19-45 19-46 5-12zm31 78-20 51-1 7h47l-6-17-15-39-2-2z" fill="#fff"/>
<path transform="translate(680,10)" d="m0 0h79l14 27 10 20 12 22 4 4 2-9 12-23 15-29 7-12h79l-8 17-16 27-32 56-16 27-8 14-1 10-1 66-1 18-3 2h-66l-2-6-1-87-17-32-14-24-16-29-14-25-13-23-5-9z" fill="#fff"/>
<path transform="translate(1979,10)" d="m0 0h176l1 1v54h-59v180h-60l-1-1v-179h-57z" fill="#fff"/>
<path transform="translate(1367,4)" d="m0 0 14 1 21 7 20 10 9 8 8 7 13 13 12 19 8 18 5 20v40l-4 17-8 20-8 14-14 17-5 5-12 10-23 13-18 6-17 2-2-3v-63l15-9 8-5 8-10 6-12 3-12v-19l-6-19-10-14-17-11-7-5v-48z" fill="#fff"/>
<path transform="translate(1327,4)" d="m0 0h9v67l-14 9-10 9h-2l-2 5-5 8-4 13-1 5v16l6 18 9 13 11 10 12 7v67l-17-2-20-7-16-9-13-10-17-17-13-20-8-18-4-17-1-7v-29l2-15 5-17 10-20 12-17 16-16 18-12 17-8z" fill="#fff"/>
</svg>
