<?xml version="1.0" encoding="UTF-8"?>
<svg version="1.1" viewBox="0 0 1760 1760" width="440" height="440" xmlns="http://www.w3.org/2000/svg">
<path transform="translate(0)" d="m0 0h1760v1760h-1760z" fill="#36007B"/>
<path transform="translate(1438,138)" d="m0 0h40l21 2 26 5 23 7 23 10 20 11 12 8 19 14 10 9 8 7 18 18 11 14 10 14 12 20 8 18 7 21 5 25 1 8v31l-3 19-6 24-6 20-8 37-4 26-3 35v9l3 25 8 34 9 29 8 19 7 11 8 10 7 7 6 10 1 2v12l-5 10-5 6-13 8-16 6-5 1h-9l-8-3-7-8-4-11-2-13v-18l2-30v-24l-3-23-6-22-4-12-7-14-5-7v-2l-4-1-10 15-16 23-11 15-10 13-13 16-8 10-12 14-15 15-15 11-16 9-16 8-19 10-11 8-8 9-5 9-4 10-3 16-1 11v102l1 46 3 86 2 1 38 2 78 7 66 4 23 2 15 3 10 3 8 4 7 8 1 2v8l-7 9-11 8-20 8-21 5-23 3h-15l-13-1h-45l-16 1-74 2 3 81v28l-3 15-6 10-10 8-10 4-8-1-10-6-8-9-8-16-5-18-3-19-3-32-3-35-1-11h-46l-117-1-49-1-116-1h-178l-14 2-9 3-8 5-6 8-1 5v64l-4 73-1 60-5 18-5 10-9 8-2 1h-7l-10-5-10-9-7-11-6-14-6-22-4-21-10-63-9-43-3-25-2-34-3-119-1-51-2-33-4-32-5-24-10-37-7-24-4-16-1-7v-16l4-12 9-14 7-7 10-6 10-4 8-2h20l15 5 11 7 9 9 9 15 5 12 5 18 2 13v15l-3 14-4 14-1 9v18l3 26 6 34 4 13 4 6 6 4h15l13-5 11-7 13-12 19-19h2v-2l11-9 31-31 9-12 7-9 9-14 12-22 8-20 4-11 1-5v-19l-5-17-8-18-10-17-8-11-9-11-8-8-13-8-12-5-9-3-22-4-35-3h-31l-30 5-26 6-24 8-27 13-24 14-21 14-10 8-10 9-7 8-13 13-8 7-15 12-15 10-12 7-19 7-11 2h-11l-9-3-6-3-10-9-6-9-5-12-2-8v-16l6-18 7-12 7-9 5-6 10-8 14-9 14-7 16-5 26-6 30-10 36-16 14-7 23-11 29-13 25-8 22-5 16-3 30-3 30-2 25-5 21-7 16-8 11-7 8-8 7-10 7-6 7-1 5 3 4 5 2 6v15l2 11 5 12 9 12 10 11 11 9 18 12 16 12 13 12 12 15 10 17 8 21 4 20 1 19-2 15-5 15-12 25-11 21-8 14-10 18-8 13-10 17-7 11-9 14-8 12-12 16-9 10-10 10-8 7-15 14-11 12-8 12-3 10 1 9 5 2 9 3 33 5 44 4 84 5 99 4 160 5-3-25-6-60-8-85-5-58-3-45-2-35-4-36-6-46-4-40-1-32 1-14v-46l-3-26-5-28-1-21 2-10 8-16 10-9 14-7 3-1h12l12 5 15 10 19 14 13 10 13 13 8 16 6 19 6 7 23 13 7 4 4 5-4 2-22-6-7-1h-15l-5 4-2 8-3 49-2 28-1 5v19l4 13 6 11 7 7 7 3h7l16-8 16-13 10-10 9-11 10-12 9-13 8-12 12-21 15-29 14-31 12-31 7-23 5-25 1-15-1-16-6-18-9-19-11-17-9-12-12-14-9-9-15-11-17-9-14-4-20-3h-56l-36 4-26 5-15 4-15 5-16 8-10 7-14 12-13 12-16 15-15 15-9 12-8 13-8 19-8 8-14 7-14 4h-24l-15-5-12-7-6-5-7-8-10-15-7-15-5-16-1-6v-15l4-16 7-14 6-8 14-14 15-10 29-14 31-14 38-17 21-9 13-5 9-4 18-7 24-8 32-8 36-7 22-3z" fill="#F511AA"/>
<path transform="translate(420,581)" d="m0 0h13l13 4 14 7 10 9 4 9-1 8-6 12-9 11-6 7-8 7-15 14-8 7-12 12-13 17-12 21-8 16-4 12-1 11 4 6 5 3 43 5 35 5 41 7 32 8 23 8 21 10 16 10 11 9 14 14v2h2l14 21 8 17 9 27 5 25 3 28v34l-2 24-5 28-6 26-7 22-9 24-8 18-12 22-10 16-10 14-11 14-12 14-11 13-11 14-12 16-10 14-16 23-10 15-11 17-11 16-14 19-9 10-7 8-12 11-13 10-19 13-18 14-11 9-12 11-8 7-7 8-10 12-8 11-22 33-12 16-18 22-12 13-6 7h-2l-2 4h-2l-2 4-8 7-12 12-11 9-14 11-21 13-12 5-7 2h-18l-14-5-9-7-7-7-6-10-6-16-1-5v-15l3-10 9-14 9-10 8-8 7-8 12-15 9-15 5-11 5-19 5-38 3-37 1-26 1-101v-81l-2-10-7-6-4-1-20 6-14 4-10-1-7-6-4-9-2-9v-24l2-12 8-24 12-25 13-22 16-23 10-13 10-15 12-17 10-13 10-11 7-8 14-14 14-11 13-8 17-7 4-1h12l8 3 8 8 6 10 5 16 2 15v14l-2 16-8 34-7 28-7 36-4 27-2 25v31l2 46v14l-1 25-5 43-3 19v27l4 16 6 10 8 7 9 3 10-1 13-5 12-7 11-8 15-13 15-14 3-1 2-4 19-19 7-8 9-10 1-2h2l2-4 11-12 7-9 10-12 10-13 9-12 11-15 13-20 12-21 10-18 9-17 11-25 12-36 6-28 2-18v-36l-3-21-4-17-6-18-6-13-9-16-10-13-11-12-13-10-13-8-19-10-24-8-24-5-9-1h-39l-30 5-26 7-36 12-30 12-35 15-26 12-23 11-17 8-16 8-17 9-16 8-27 14-22 12-24 14-26 16-4 1v-97l8-4 25-11 35-17 20-9 14-7 29-13 12-6 28-12 29-12 28-11 21-9 20-12 20-14 12-9 11-9 14-12 13-12 9-11 8-11 11-18 10-17 11-23 7-19 3-14v-22l5-12 7-6z" fill="#F511AA"/>
<path transform="translate(1217,458)" d="m0 0h11l9 3 6 5 3 7 1 11-5 30 1 21 3 27 10 69 4 37 3 39 3 52 4 43 6 41 7 31 7 22 8 25 3 16-1 10-6 10-9 7-10 5-14 4-11 1h-10l-11-2-13-5-12-7-7-7-7-12-4-13-1-7-2-100-2-53-3-35-4-25-5-23-12-36-6-21-5-24-5-38v-16l3-19 6-17 6-11 12-17 13-13 11-7 11-5z" fill="#F511AA"/>
<path transform="translate(641,1196)" d="m0 0h9l9 3 10 9 7 8 8 16 5 14 4 18 1 8v15l-2 10-6 10-9 6-11 3-12 1-15-3-11-6-10-9-7-10-6-13-3-13v-23l5-16 7-12 5-6 9-6z" fill="#F411AA"/>
<path transform="translate(864,363)" d="m0 0h15l15 3 16 7 14 10 9 9 6 10 4 9 1 5v12l-6 12-7 6-14 6-4 1h-20l-17-5-15-8-13-11-7-8-8-16-1-5v-9l4-11 4-6 9-6 11-4z" fill="#F411AA"/>
<path transform="translate(609,1341)" d="m0 0h14l12 5 10 7 8 9 3 8-1 9-6 11-8 7-7 3-5 1h-9l-16-5-12-7-6-5-5-7v-7l6-11 8-10 5-4z" fill="#F411AA"/>
<path transform="translate(1522,852)" d="m0 0h20l10 3 7 6 4 8-1 8-4 8-7 7-17 11-16 7-3 1h-13l-6-4-4-5-2-4v-9l5-15 7-12 6-5 8-4z" fill="#F311AA"/>
<path transform="translate(1049,421)" d="m0 0 9 1 8 5 7 8 3 8 1 4v12l-3 9-5 9-9 8-8 3h-9l-8-4-7-6-4-7-2-7v-13l5-14 6-8 9-6z" fill="#F311AA"/>
<path transform="translate(1326,1629)" d="m0 0 7 1 6 5 9 15 4 4 2-6 7-10 6-8h9l2 2v46l-2 2h-10l-1-1v-19l-3 1-8 14-4 2-4-5-7-11h-2v18l-1 1h-11l-1-1v-47z" fill="#F111A9"/>
<path transform="translate(1230,1630)" d="m0 0h26l7 3 4 6 1 8-2 3h-2l1 5 5 6 1 7-5 8-5 3-6 1h-25l-1-1v-48z" fill="#F011A9"/>
<path transform="translate(1128,1630)" d="m0 0h25l9 4 4 7-1 7-3 3 1 4 5 5v9l-6 8-3 2-6 1h-22l-3-1-1-4v-32z" fill="#F111A9"/>
<path transform="translate(1637,1630)" d="m0 0 25 1 7 3 6 7 1 10-4 7-4 5 2 6 4 5 1 6-2 1h-8l-5-4-5-10v-2h-7l1 6v8l-1 1h-12l-1-3v-46z" fill="#F011A9"/>
<path transform="translate(1443,1630)" d="m0 0h7l9 6 8 8v2l7 2-1-17 1-1h10l3 2 1 47-4 1-5-5-11-10-4-3v-2l-3-1-4-4-2-1 1 21-2 6-10-1-2-5v-44z" fill="#F211A9"/>
<path transform="translate(1590,1630)" d="m0 0h34l3 3v7l-1 2-22 1 1 5 16 1 3 3v8l-1 1-19 1 1 5 14 1h5l3 4v7l-1 1-31 1-6-2-1-47z" fill="#F011A9"/>
<path transform="translate(1506,1629)" d="m0 0h15l9 4 5 5 1 6-1 1-9-1-7-3-4-2-5 1-1 4 10 3 10 4 7 6 1 2v10l-3 5-7 6-9 2-12-1-8-5-4-6-1-7 2-2 9 2 11 7 6-1 1-5-4-3-13-4-9-6-2-5 1-6 6-8z" fill="#F011A9"/>
<path transform="translate(1193,1629)" d="m0 0 9 1 5 8 16 36 1 6h-12l-4-4-3-5h-16l-6 8-3 1h-8l-2-1 1-6 10-23 7-16z" fill="#F011A9"/>
<path transform="translate(1119,826)" d="m0 0h8l6 4 6 8 3 9v9l-3 5-7 6-5 2h-12l-8-5-5-6-1-4 2-8 7-14 6-5z" fill="#F111A9"/>
<path transform="translate(1272,1629)" d="m0 0 13 1 5 6 4 8h2l7-13 2-1 12-1 1 4-6 12-8 15-1 18-1 2h-13l-1-1-1-16-4-9-9-17-2-3z" fill="#F111A9"/>
<path transform="translate(1542,1630)" d="m0 0h37l3 3-1 7-2 2-11 1v36l-1 1h-11l-2-3v-35h-7l-6-2-1-9z" fill="#F211A9"/>
<path transform="translate(1513,477)" d="m0 0h7l9 4 6 7 2 4v8l-4 6-5 4-3 1h-10l-8-5-5-6-1-3v-8l4-7 5-4z" fill="#F211A9"/>
<path transform="translate(876,1303)" d="m0 0h8l8 4 5 7v8l-5 5-9 6-5 2h-9l-6-4-4-5-1-6 6-10 6-5z" fill="#F111A9"/>
<path transform="translate(939,981)" d="m0 0 17 4 35 5 50 4 70 4 99 4 160 5v-5h1v7h-31l-41-1-46-2-56-1-12-1-32-1-11-1-31-1-96-6-39-4-16-2-16-4-5-2z" fill="#D211A1"/>
<path transform="translate(1446,751)" d="m0 0h1l-1 12-1 11v102l1 46 3 86 2 1 38 2 78 7 66 4 23 2 15 3 4 2-9-1-16-2-54-3-58-5-46-4-25-1-16-1-5-5v-19l-2-45-2-108v-48l2-32z" fill="#D211A1"/>
<path transform="translate(1401,1630)" d="m0 0h5l1 1v8l-3 5-5 5-2 3v6l4 6 6 5v10l-1 1-7-1-8-6-6-9-1-4 1-14 4-7 8-8z" fill="#F211AA"/>
<path transform="translate(1413,1630)" d="m0 0h6l9 6 6 7 2 6v12l-4 8-7 8-6 3h-6v-8l3-5 5-6 1-2v-9l-8-9-1-4z" fill="#EF11A9"/>
<path transform="translate(505,1198)" d="m0 0 1 2-11 18-7 10-6 9h-2l-2 5-6 7-1 3-4 4-4 6-3 2-2 4h-2l-2 5-2 3h-2v2h-2v2h-2l-4 8h-2l-1 4-5 5-9 10-3 3h-2l-2 4-11 12-6 7h-2l-2 4h-2l-2 4h-2l-2 4-13 11-14 13-13 9-14 9-6 3-11 3-10-1-8-4 2-1 9 3 10-1 13-5 12-7 11-8 15-13 15-14 3-1 2-4 19-19 7-8 9-10 1-2h2l2-4 11-12 7-9 10-12 10-13 9-12 11-15 13-20z" fill="#D211A1"/>
<path transform="translate(1650,1077)" d="m0 0 4 1-16 4-23 3h-15l-13-1h-45l-16 1-74 2 3 81v28l-1 6h-1l-2-84-1-30 2-3 60-2 27-2h45l9 1h29l25-4z" fill="#D211A1"/>
<path transform="translate(295,1097)" d="m0 0h1v8l-3 19-2 25v31l2 46v14l-1 25-5 43-3 19v27l2 13-2-2-3-17v-20l3-20 3-17 3-34v-52l-2-26v-35l4-31 2-10z" fill="#D211A1"/>
<path transform="translate(376,773)" d="m0 0 13 2 34 4 35 5 41 7 32 8 20 7-4 1-21-7-31-7-18-3-39-6-23-3-14-2-16-1-6-2z" fill="#D211A1"/>
<path transform="translate(950,509)" d="m0 0v3l-7 7-8 6-14 7-12 5-15 5-18 4-20 2-18 1-26 2-28 5-8 1 3-2 25-5 22-3 43-3 25-5 21-7 16-8 11-7z" fill="#D211A1"/>
<path transform="translate(973,805)" d="m0 0v3l-7 11-10 13-6 8h-2l-2 5-6 7-8 7-5 5-4 1-1 3-5 4h-2v2l-8 7-6 5-23 23-7 5-3-1 13-10 25-25h2v-2l11-9 31-31 9-12 7-9z" fill="#D211A1"/>
<path transform="translate(266,922)" d="m0 0 2 1-16 9-11 8-12 11-5 5h-2v2h-2v2h-2l-2 4-6 7-5 5-3 4h-2l-2 4-8 11-12 18-7 9v-3l8-12 12-17 10-13 10-11 7-8 14-14 14-11 13-8z" fill="#D211A1"/>
<path transform="translate(1544,545)" d="m0 0v3l-7 11-7 10-8 11h-2l-2 5-2 3h-2v2h-2l-2 4-4 5-6 5-5 5-10 8-13 9-7 2-9-1-5-3 2-1 5 2h7l16-8 16-13 10-10 9-11 10-12 9-13 8-12z" fill="#D211A1"/>
<path transform="translate(816,751)" d="m0 0 2 4 2 13v15l-3 14-4 14-1 9v18l3 26 1 13h-1l-3-16-3-32 1-13 2-13 3-7 3-15v-10l-2-14z" fill="#D211A1"/>
<path transform="translate(825,617)" d="m0 0h53l18 3v1h-12l-23-2h-31l-30 5-10 1 4-2 24-5z" fill="#D211A1"/>
<path transform="translate(338,739)" d="m0 0v3l-6 6h-2v2l-8 7-7 6-10 8-13 10-12 8-13 9-3-1 15-10 14-10 12-9 14-12 11-10z" fill="#D211A1"/>
<path transform="translate(1687,480)" d="m0 0h1l-1 14-3 22-2 25v9l2 19v6l-2-4-2-13v-32l3-21 1-13z" fill="#D211A1"/>
<path transform="translate(1542,1630)" d="m0 0h37l3 3-1 7-2 2-11 1v36l-1 1h-11v-1h10l-1-3 1-34 1-1 11-1 2-8h-33l-5-1z" fill="#D211A1"/>
<path transform="translate(1240,464)" d="m0 0 4 4 3 10-1 13-4 23 1 21 1 11v9h-1l-3-23v-25l3-12 1-9v-12l-4-8z" fill="#D211A1"/>
<path transform="translate(1650,1642)" d="m0 0h9l3 3-1 7-2 1h-7l-5-4 1-5z" fill="#36007B"/>
<path transform="translate(1326,1629)" d="m0 0 7 1 3 3-10-2v47l8 1 1-20 2-2 3 2-1 2h-2v18l-1 1h-11l-1-1v-47z" fill="#D211A1"/>
<path transform="translate(1244,1660)" d="m0 0h9l3 3v5l-3 1h-7l-3-2v-6z" fill="#36007B"/>
<path transform="translate(1474,1630)" d="m0 0h10l3 2 1 47-4 1-4-3 1-2 4 3v-45l-9-1h-2v7h-1v-8z" fill="#D211A1"/>
<path transform="translate(554,642)" d="m0 0 2 1-5 4h-2v2l-7 5h-2v2l-8 7-9 12-8 14-1-3 6-11 8-11 6-7 10-8z" fill="#D211A1"/>
<path transform="translate(1146,1659)" d="m0 0 7 2 1 6-4 2h-6l-3-3v-5z" fill="#36007B"/>
<path transform="translate(1307,1650)" d="m0 0 1 2-4 8-1 18-1 2h-13l-1-1-1-16-1-6 2 2 1 3 1 16 10 1 1-16 4-10z" fill="#D211A1"/>
<path transform="translate(609,1341)" d="m0 0h14l12 5 3 3-6-2-7-3-5-1h-9l-11 5-5 4-7 9v-3l7-9 5-4z" fill="#D211A1"/>
<path transform="translate(641,1196)" d="m0 0h9l9 3 1 2-13-3-10 1-14 7-11 11 2-5 5-6 9-6z" fill="#D411A1"/>
<path transform="translate(1195,1648)" d="m0 0 5 2 1 2v6l-1 1h-6l-2-3 1-5z" fill="#36007B"/>
<path transform="translate(1246,1640)" d="m0 0 7 1 1 6-7 2-4-2v-6z" fill="#36007B"/>
<path transform="translate(1144,1640)" d="m0 0 7 1 1 5-1 2h-8l-2-2v-5z" fill="#36007B"/>
<path transform="translate(1619,1668)" d="m0 0h5l3 4v7l-1 1-31 1-5-1v-1l33-1 1-1v-6l-5-2z" fill="#D211A1"/>
<path transform="translate(866,914)" d="m0 0 2 1-7 5-15 5-10-1-3-3h17l13-5z" fill="#D211A1"/>
<path transform="translate(1401,1630)" d="m0 0h5l1 1v8l-3 5-8 8 1-4 7-9 1-7-6 1-8 7-3 2 2-4 7-7z" fill="#D511A2"/>
<path transform="translate(1162,230)" d="m0 0 2 1-19 11-11 9-2-1 9-8 15-9z" fill="#D211A1"/>
<path transform="translate(1495,1661)" d="m0 0 9 2 11 7 4 2h-6l-10-7-7-1v8l-2-2-1-7z" fill="#D211A1"/>
<path transform="translate(1454,1652)" d="m0 0 3 2h-2l1 21-2 6-10-1v-1l8-1 2-1-1-24z" fill="#D211A1"/>
<path transform="translate(1218,1666)" d="m0 0 3 4 3 9v1h-12l-2-1 1-2 9 2-2-9z" fill="#D211A1"/>
<path transform="translate(1513,477)" d="m0 0h7l9 4 1 2-5-2-3-1h-8l-7 3-3 2 2-4 4-3z" fill="#D211A1"/>
<path transform="translate(130,1548)" d="m0 0v3l-5 5-7 8h-2l-2 5h-2l2-4 7-8z" fill="#D211A1"/>
<path transform="translate(1401,1665)" d="m0 0 4 2 2 2v10l-1 1h-5l3-4 1-5z" fill="#D211A1"/>
<path transform="translate(1269,1661)" d="m0 0 2 3-1 6-4 6-4 1 5-6z" fill="#D211A1"/>
<path transform="translate(1488,477)" d="m0 0 4 2 3 4-4 2-7-2 4-1 3-1z" fill="#D211A1"/>
<path transform="translate(1508,1638)" d="m0 0 4 1-2 1-1 4 7 2-3 1-6-3v-4z" fill="#D211A1"/>
<path transform="translate(370,754)" d="m0 0h1v11l1 4-4-4v-7z" fill="#D211A1"/>
</svg>
