<?xml version="1.0" encoding="UTF-8"?>
<svg id="Layer_2" data-name="Layer 2" xmlns="http://www.w3.org/2000/svg" xmlns:xlink="http://www.w3.org/1999/xlink" viewBox="0 0 95.58 95.58">
  <defs>
    <style>
      .cls-1 {
        fill: #fff;
      }

      .cls-2 {
        fill: none;
      }

      .cls-3 {
        clip-path: url(#clippath);
      }
    </style>
    <clipPath id="clippath">
      <rect class="cls-2" width="95.58" height="95.58"/>
    </clipPath>
  </defs>
  <g id="Layer_1-2" data-name="Layer 1">
    <g class="cls-3">
      <g>
        <path class="cls-1" d="M47.79,8.61c12.77,0,14.28.06,19.3.28,4.67.21,7.19.99,8.87,1.64,2.22.86,3.83,1.9,5.49,3.57,1.68,1.68,2.71,3.27,3.57,5.49.65,1.68,1.44,4.22,1.64,8.87.22,5.04.28,6.55.28,19.3s-.06,14.28-.28,19.3c-.21,4.67-.99,7.19-1.64,8.87-.86,2.22-1.9,3.83-3.57,5.49s-3.27,2.71-5.49,3.57c-1.68.65-4.22,1.44-8.87,1.64-5.04.22-6.55.28-19.3.28s-14.28-.06-19.3-.28c-4.67-.21-7.19-.99-8.87-1.64-2.22-.86-3.83-1.9-5.49-3.57-1.68-1.68-2.71-3.27-3.57-5.49-.65-1.68-1.44-4.22-1.64-8.87-.22-5.04-.28-6.55-.28-19.3s.06-14.28.28-19.3c.21-4.67.99-7.19,1.64-8.87.86-2.22,1.9-3.83,3.57-5.49,1.68-1.68,3.27-2.71,5.49-3.57,1.68-.65,4.22-1.44,8.87-1.64,5.02-.22,6.53-.28,19.3-.28ZM47.79,0c-12.97,0-14.6.06-19.69.28-5.08.22-8.57,1.05-11.59,2.22-3.15,1.23-5.82,2.86-8.47,5.53-2.67,2.65-4.29,5.32-5.53,8.46-1.18,3.04-2,6.51-2.22,11.59-.22,5.11-.28,6.74-.28,19.71s.06,14.6.28,19.69c.22,5.08,1.05,8.57,2.22,11.59,1.23,3.15,2.86,5.82,5.53,8.48,2.65,2.65,5.32,4.29,8.46,5.51,3.04,1.18,6.51,2,11.59,2.22,5.1.22,6.72.28,19.69.28s14.6-.06,19.69-.28c5.08-.22,8.57-1.05,11.59-2.22,3.14-1.21,5.81-2.86,8.46-5.51,2.65-2.65,4.29-5.32,5.51-8.46,1.18-3.04,2-6.51,2.22-11.59.22-5.1.28-6.72.28-19.69s-.06-14.6-.28-19.69c-.22-5.08-1.05-8.57-2.22-11.59-1.18-3.17-2.8-5.84-5.47-8.49-2.65-2.65-5.32-4.29-8.46-5.51-3.04-1.18-6.51-2-11.59-2.22-5.11-.24-6.74-.3-19.71-.3Z"/>
        <path class="cls-1" d="M47.79,23.24c-13.55,0-24.55,11-24.55,24.55s11,24.55,24.55,24.55,24.55-11,24.55-24.55-11-24.55-24.55-24.55ZM47.79,63.71c-8.79,0-15.92-7.13-15.92-15.92s7.13-15.92,15.92-15.92,15.92,7.13,15.92,15.92-7.13,15.92-15.92,15.92Z"/>
        <path class="cls-1" d="M79.04,22.27c0,3.17-2.58,5.73-5.73,5.73s-5.73-2.58-5.73-5.73,2.58-5.73,5.73-5.73,5.73,2.58,5.73,5.73Z"/>
      </g>
    </g>
  </g>
</svg>