<?xml version="1.0" encoding="UTF-8"?>
<svg id="Layer_2" data-name="Layer 2" xmlns="http://www.w3.org/2000/svg" viewBox="0 0 95.28 95.28">
  <defs>
    <style>
      .cls-1 {
        fill: #fff;
      }
    </style>
  </defs>
  <g id="Layer_1-2" data-name="Layer 1">
    <path class="cls-1" d="M47.64,0C21.33,0,0,21.33,0,47.64s21.33,47.64,47.64,47.64,47.64-21.33,47.64-47.64S73.96,0,47.64,0h0ZM69.49,68.71c-.85,1.4-2.68,1.84-4.08.98-11.19-6.83-25.27-8.38-41.85-4.59-1.6.36-3.19-.64-3.56-2.24-.37-1.6.63-3.19,2.23-3.56,18.15-4.15,33.72-2.36,46.27,5.31,1.4.86,1.84,2.69.98,4.08ZM75.32,55.74c-1.08,1.75-3.36,2.3-5.11,1.23-12.81-7.87-32.33-10.15-47.47-5.55-1.96.59-4.04-.51-4.64-2.47-.59-1.96.52-4.04,2.48-4.63,17.3-5.25,38.81-2.71,53.52,6.33,1.75,1.08,2.3,3.36,1.22,5.11ZM75.82,42.23c-15.35-9.12-40.69-9.96-55.35-5.51-2.35.71-4.84-.62-5.56-2.97-.71-2.36.61-4.84,2.97-5.56,16.83-5.11,44.81-4.12,62.48,6.37,2.12,1.26,2.82,3.99,1.56,6.11-1.25,2.12-3.99,2.82-6.1,1.56h0Z"/>
  </g>
</svg>