<?xml version="1.0" encoding="UTF-8"?>
<svg id="Layer_2" data-name="Layer 2" xmlns="http://www.w3.org/2000/svg" viewBox="0 0 95.58 67.22">
  <defs>
    <style>
      .cls-1 {
        fill: #fff;
      }
    </style>
  </defs>
  <g id="Layer_1-2" data-name="Layer 1">
    <path class="cls-1" d="M94.62,14.5s-.93-6.59-3.81-9.48c-3.64-3.81-7.71-3.83-9.58-4.05-13.36-.97-33.43-.97-33.43-.97h-.04S27.7,0,14.34.97c-1.87.22-5.94.24-9.58,4.05C1.89,7.91.97,14.5.97,14.5c0,0-.97,7.75-.97,15.48v7.24c0,7.73.95,15.47.95,15.47,0,0,.93,6.59,3.79,9.48,3.64,3.81,8.42,3.68,10.55,4.09,7.65.73,32.5.95,32.5.95,0,0,20.09-.04,33.45-.99,1.87-.22,5.94-.24,9.58-4.05,2.88-2.89,3.81-9.48,3.81-9.48,0,0,.95-7.73.95-15.47v-7.24c0-7.73-.95-15.48-.95-15.48ZM37.91,46.01v-26.86l25.82,13.48-25.82,13.38Z"/>
  </g>
</svg>